<svg xmlns="http://www.w3.org/2000/svg" viewBox="0 0 100 100">
  <defs>
    <linearGradient id="grad" x1="0%" y1="0%" x2="100%" y2="100%">
      <stop offset="0%" stop-color="#a855f7" />
      <stop offset="100%" stop-color="#7B2CBF" />
    </linearGradient>
    <filter id="shadow" x="-20%" y="-20%" width="140%" height="140%">
      <feDropShadow dx="0" dy="4" stdDeviation="4" flood-color="#000" flood-opacity="0.3"/>
    </filter>
  </defs>

  <!-- Orbit -->
  <ellipse cx="50" cy="50" rx="46" ry="20" fill="none" stroke="url(#grad)" stroke-width="3" transform="rotate(-30 50 50)" />
  
  <!-- Main Outer Play Shape -->
  <path d="M22 25 Q22 15 32 20 L82 45 Q92 50 82 55 L32 80 Q22 85 22 75 Z" fill="url(#grad)" filter="url(#shadow)" />
  
  <!-- Inner White Play -->
  <polygon points="40,35 67,50 40,65" fill="#ffffff" stroke="#ffffff" stroke-width="4" stroke-linejoin="round" />
  
  <!-- Sparkles -->
  <path d="M 85 15 L 87 20 L 92 22 L 87 24 L 85 29 L 83 24 L 78 22 L 83 20 Z" fill="#a855f7" />
  <path d="M 15 80 L 16 83 L 19 84 L 16 85 L 15 88 L 14 85 L 11 84 L 14 83 Z" fill="#7B2CBF" />
</svg>
